<svg xmlns="http://www.w3.org/2000/svg" width="32" height="22" viewBox="0 0 32 22"><defs><style>.a{fill:#006c35;}.b{fill:#fff;fill-rule:evenodd;}</style></defs><g transform="translate(-0.583 -0.025)"><rect class="a" width="32" height="22" rx="3" transform="translate(0.583 0.025)"/><path class="b" d="M192.321,118.09a.168.168,0,0,0-.078.03.582.582,0,0,0-.245.411c0,.108-.025.107.045.176.051.074.1.066.2.012a.217.217,0,0,0,.1-.144c.025-.122-.129.058-.148-.078s.064-.179.157-.3c0-.058,0-.1-.034-.106Zm1.5.008c-.029,0-.064.041-.113.129a.546.546,0,0,0-.077.522.786.786,0,0,1-.072,1.035.257.257,0,0,1-.331.045.355.355,0,0,1-.2-.279,3.825,3.825,0,0,0-.03-.9.163.163,0,0,0-.272-.055,2.053,2.053,0,0,0-.494,1.013c-.076.246-.157.175-.214.076-.139-.13-.149-1.148-.316-.98-.268.767.154,1.608.447,1.526.211.087.345-.315.432-.755.059-.124.1-.138.135-.074-.008.585.042.716.192.894a.486.486,0,0,0,.635.011l.261-.261a.157.157,0,0,1,.217-.011c.08.073.07.2.241.285a.529.529,0,0,0,.522-.11c.1-.164.119-.221.164-.283.068-.091.186-.051.186-.022-.011.051-.08.1-.033.192.081.061.1.022.148.008.17-.081.3-.451.3-.451.008-.138-.071-.127-.121-.1-.065.04-.069.054-.135.093-.083.012-.245.067-.324-.056a4.894,4.894,0,0,1-.144-.506c0-.011-.109-.236-.008-.25.051.009.16.038.177-.054.053-.089-.115-.341-.23-.469a.247.247,0,0,0-.37-.011c-.093.086-.079.181-.1.272a.425.425,0,0,0,.087.371,1.129,1.129,0,0,1,.206.751.3.3,0,0,1-.271.137c-.072-.016-.189-.047-.252-.507-.047-.349.012-.837-.136-1.066-.033-.086-.062-.17-.11-.164Zm-.474.037c-.045,0-.094.056-.135.157a2.546,2.546,0,0,0-.07.477c-.028.119.125.17.194.017a1.461,1.461,0,0,0,.111-.52c-.016-.091-.056-.135-.1-.131Zm1.752.032c-.046,0-.083.031-.1.1a1.044,1.044,0,0,0,.018.379,1.345,1.345,0,0,0,.213.323c.3.408.6.818.877,1.241.044.315.077.623.1.929a18.716,18.716,0,0,1,.018,2.218c.126,0,.328-.2.4-.509a14.8,14.8,0,0,0-.021-1.533c0-.1-.009-.227-.017-.356.328.536.646,1.1.958,1.727.114-.054.089-.7.022-.785-.25-.538-.6-1.069-.705-1.273-.04-.074-.175-.28-.335-.517-.03-.339-.062-.626-.082-.712-.052-.358.147.04.12-.168a2.29,2.29,0,0,0-.495-.928c-.075-.107-.074-.128-.19.026a.683.683,0,0,0-.048.411c-.031-.044-.068-.1-.122-.162-.2-.173-.214-.182-.381-.323a.413.413,0,0,0-.23-.088Zm5.191.054c-.022,0-.047.008-.074.048a.313.313,0,0,0-.107.236c.013.189.046.382.059.571l.014.076a.731.731,0,0,0-.048-.056c-.368-.386.169-.063-.07-.362a2.865,2.865,0,0,0-.434-.426c-.087-.056-.139-.163-.168.019a3.6,3.6,0,0,0-.012.481.647.647,0,0,0,.144.3c.245.3.5.622.748.957.053.683.067,1.308.121,1.992-.008.292-.1.681-.183.718,0,0-.13.075-.217-.008a2.608,2.608,0,0,1-.316-.422.193.193,0,0,0-.308,0,4.251,4.251,0,0,0-.542,1.022c-.045.071-.17.131-.309-.006a1.441,1.441,0,0,1-.191-1,1.1,1.1,0,0,0-.1,1.071.84.84,0,0,0,.39.444.274.274,0,0,0,.407-.044c.185-.192.188-.684.275-.781a.163.163,0,0,1,.289-.069.71.71,0,0,0,.264.228.443.443,0,0,0,.583.041.676.676,0,0,0,.311-.379,13.32,13.32,0,0,0,.025-2.139c.131.184.26.372.388.562a13.944,13.944,0,0,1,.063,1.752c-.013.112.392-.335.389-.547,0-.185,0-.354,0-.51.2.314.387.633.566.956.111-.059.073-.69,0-.777-.188-.316-.429-.657-.616-.921-.037-.333-.087-.726-.11-.847-.036-.188-.071-.47-.125-.693a2.368,2.368,0,0,1-.045-.392c.022-.062.1,0,.146-.07a2.5,2.5,0,0,0-.351-.976c-.05-.091-.14-.059-.252.088-.1.1-.066.318-.026.528.1.536.194,1.081.267,1.625-.134-.2-.3-.441-.459-.674,0-.022-.021-.1-.021-.106s-.022-.438-.041-.54c0-.041-.013-.053.03-.048a.249.249,0,0,0,.081.054c.047.009.087-.07.059-.143l-.432-.8a.12.12,0,0,0-.059-.038Zm-13.4.014c-.08,0-.168.047-.133.143-.02.052.156.229.187.326.028.069-.027.292.03.312s.126-.154.154-.318c.015-.09,0-.4-.2-.459a.173.173,0,0,0-.033,0Zm15.262,0c-.018,0-.04.031-.074.1a.955.955,0,0,0-.077.584,32.121,32.121,0,0,1,.373,3.793,1.23,1.23,0,0,1-.074.312,2.5,2.5,0,0,1-.364.425c-.12.09-.377.175-.461.242-.266.154-.267.33-.052.337a1.325,1.325,0,0,0,1.111-.529,1.767,1.767,0,0,0,.18-.686,16,16,0,0,0-.2-3.356,1.67,1.67,0,0,1-.036-.315c.024-.062.145.006.188-.065.063-.065-.313-.547-.445-.753C202.192,118.276,202.176,118.233,202.153,118.236Zm-3.885.021c-.015,0-.038.026-.08.081a1.814,1.814,0,0,0-.1.825,17.939,17.939,0,0,1,.495,3.972c.126,0,.272-.288.334-.575a4.871,4.871,0,0,0-.033-.866c-.01-.232-.262-2.112-.313-2.288-.062-.332.245-.044.212-.236-.106-.243-.371-.6-.454-.808-.031-.057-.035-.109-.06-.1Zm-9.46.026a.1.1,0,0,0-.076.077c-.007.029.013.077-.014.092s-.073,0-.07-.076a.135.135,0,0,0-.03-.069.06.06,0,0,0-.04-.01c-.025,0-.025.008-.039.029a.239.239,0,0,0-.014.067c0,.029-.015.038-.036.043s-.018,0-.037-.01-.025-.017-.025-.038a.226.226,0,0,0-.012-.071.076.076,0,0,0-.044-.025c-.1,0-.106.114-.1.157-.007.008-.011.209.124.265.181.086.52.05.506-.242,0-.026-.006-.112-.008-.136a.078.078,0,0,0-.085-.054Zm2.428,0a.4.4,0,0,0-.165.045.312.312,0,0,0-.054.414c.092.043.184.136.122.187-.26.278-.937.742-.971.826v0s0,0,0,0,0,0,0,0v0h.007a1.925,1.925,0,0,0,.5,0h0s0,0,0,0a7.123,7.123,0,0,0,.836-.843c-.036-.031-.069-.053-.1-.084s-.034-.066,0-.1a.274.274,0,0,0,.027-.418.446.446,0,0,0-.206-.041Zm6.346,0c-.018,0-.04.03-.074.1a1.159,1.159,0,0,0-.131.584c.177,1.224.231,2.295.346,3.518a.484.484,0,0,1-.087.359,3.449,3.449,0,0,1-1.167.851c-.049.055.122.29.344.29a1.3,1.3,0,0,0,1-.8,1.424,1.424,0,0,0,.227-.613,13.387,13.387,0,0,0-.249-3.107.513.513,0,0,1,.011-.217c.024-.029.105,0,.148-.07.063-.065-.169-.6-.3-.807-.026-.052-.043-.093-.066-.091Zm-9.832.037a.163.163,0,0,0-.122.1,3.541,3.541,0,0,0,.012.573,6.268,6.268,0,0,1,.161.921c.012.435-.251.188-.239-.027a1.96,1.96,0,0,0-.01-.833c-.043-.112-.092-.139-.2-.121-.083-.005-.3.228-.356.613a3.619,3.619,0,0,0-.072.374c-.029.2-.161.34-.253-.027-.079-.267-.128-.925-.261-.771-.038.514-.083,1.418.353,1.511.528.051.236-.893.428-1.064.036-.085.1-.086.109.021v.8a.385.385,0,0,0,.3.392c.138-.011.23-.007.285.128q.032.693.066,1.387s.32.092.335-.78a8.14,8.14,0,0,1-.033-1.041c0-.1.128-.1.214-.055.138.1.2.217.414.169.326-.09.523-.248.528-.5a2.174,2.174,0,0,0-.15-.715c.014-.043-.062-.156-.048-.2.059.092.147.084.168,0a.715.715,0,0,0-.282-.434c-.116-.1-.285-.08-.346.132a1.155,1.155,0,0,0,.267.771.756.756,0,0,1,.067.385.206.206,0,0,1-.268-.052s-.26-.195-.26-.238a.932.932,0,0,0-.023-.615.829.829,0,0,0-.172-.338c-.065-.069-.153-.069-.2,0a1.165,1.165,0,0,0,.022.818c.06.176.152.286.109.286-.036.1-.11.076-.164-.038a2.861,2.861,0,0,1-.092-.751c-.023-.2-.049-.62-.179-.727a.123.123,0,0,0-.115-.059Zm1.855,0c-.026,0-.055.018-.089.026a.262.262,0,0,0-.184.322c.133.807.219,1.422.352,2.229.02.094-.059.219-.161.206-.174-.117-.217-.355-.513-.345a.577.577,0,0,0-.489.461,1.118,1.118,0,0,0,0,.528.429.429,0,0,0,.489.121c.13-.054.237-.182.283-.151h0s0,0,0,0c.028.05,0,.469-.613.793-.375.168-.674.209-.835-.1-.1-.191.007-.921-.238-.752-.725,1.868,1.7,2.129,1.969.077.018-.058.071-.116.109-.1.017.007.032.03.037.071-.056,1.858-1.874,1.986-2.183,1.4a1.8,1.8,0,0,1-.107-.628.313.313,0,0,0-.074-.2c-.074-.055-.173.089-.194.34a2.255,2.255,0,0,0-.022.451c.1,1.468,2.437.837,2.817-.375a4.037,4.037,0,0,0,.059-1.158h.017c.232.25.558.032.63-.055a.1.1,0,0,1,.161-.015.375.375,0,0,0,.565-.161,5.086,5.086,0,0,0,.078-.7.705.705,0,0,0-.252.1.066.066,0,0,0-.018.033c-.01.066-.02.133-.03.2a.049.049,0,0,1-.005.015.064.064,0,0,1-.022.021c-.042.023-.115.01-.118-.051-.056-.255-.287-.288-.428.107-.094.077-.267.091-.285-.023.023-.265-.084-.3-.3-.176-.069-.526-.137-1.028-.206-1.554.089,0,.171.062.253-.04a2.952,2.952,0,0,0-.381-.887h0l-.015-.015-.007-.005-.007,0-.014-.005a.071.071,0,0,0-.029,0Zm7.23,0c-.093,0-.2.056-.155.172-.023.063.2.278.235.4.065.181-.049.353.018.378s.148-.187.18-.385a.6.6,0,0,0-.239-.557.192.192,0,0,0-.038,0Zm-5.633.2a.137.137,0,0,1,.118.089c.027.059.013.114-.03.125s-.1-.028-.126-.087-.013-.116.03-.126Zm10.449.271a.137.137,0,0,0-.14.187c-.021.069.18.3.213.429.029.091-.045.383.016.41s.136-.2.165-.417c.016-.118-.071-.53-.219-.6a.155.155,0,0,0-.036-.005Zm-5.777.143c.008.034.015.069.021.1.017.076.032.152.048.227-.067-.092-.122-.166-.146-.192-.151-.179,0-.118.077-.139Zm1.331.654a.1.1,0,0,0-.076.078c-.007.029.014.076-.012.091s-.074.006-.072-.074a.139.139,0,0,0-.03-.07.06.06,0,0,0-.04-.01c-.025,0-.025.008-.038.029a.251.251,0,0,0-.014.067c0,.029-.013.038-.034.043s-.019,0-.039-.01-.025-.017-.025-.038a.226.226,0,0,0-.012-.071.075.075,0,0,0-.044-.023c-.1,0-.1.113-.1.155-.007.008-.012.211.122.267.181.086.522.048.507-.243,0-.026-.007-.112-.01-.136a.078.078,0,0,0-.085-.054Zm-6.077.06a.146.146,0,0,0-.085.026.373.373,0,0,0-.122.494.241.241,0,0,0,.26.084c.157.02.25-.294.25-.294s0-.088-.181.078c-.078.015-.089-.014-.109-.058a.39.39,0,0,1,.025-.246C191.182,119.694,191.165,119.663,191.128,119.659Zm8.59.04a.2.2,0,0,0-.208.175c0,.072.032.111.026.176-.009.037-.048.062-.139.018.014-.013-.059-.117-.059-.117-.071-.043-.166,0-.228.043a.347.347,0,0,0-.021.276c.1.189.453.511.62.514,0-.17.02-.4.029-.538,0-.053.016-.112.067-.125s.139.051.14,0a.73.73,0,0,0-.092-.344.173.173,0,0,0-.136-.074Zm-7.111.593-.007,0,0,0a.881.881,0,0,1-.085.077c-.079.09-.093.152-.088.331,0,.019.149.422.272.705a2.188,2.188,0,0,1,.1.95,2.34,2.34,0,0,1-.96,1,.5.5,0,0,1-.4,0h0a.248.248,0,0,1-.106-.228s0,0,0,0h0a2.261,2.261,0,0,0,.964-1,1.02,1.02,0,0,0,.026-.718.683.683,0,0,0-.162-.333h0c.054-.026.194.077.216.012a1.045,1.045,0,0,0-.276-.51.234.234,0,0,0-.34-.021c-.117.065-.141.3-.085.5.062.154.231.18.351.489h0c0,.019.041.231-.019.316a3.786,3.786,0,0,1-.723.679l0,0h-.008s0,0,0,0v0c0-.012,0-.044,0-.095,0-.093.034-.3.032-.34h0c-.208.134-.277.546-.315.668a9.876,9.876,0,0,0-1.47,1c-.179.28,1.236-.322,1.4-.395l0,0c.031.034.034.154.128.263a.749.749,0,0,0,.764.246,2.425,2.425,0,0,0,1.1-.918c.043-.062.11-.111.172-.063a1.73,1.73,0,0,0,1.566.822c.177-.216.093-.322.021-.367-.022-.015-.381-.155-.437-.294-.035-.13.05-.245.221-.331a7.7,7.7,0,0,0,1.445-.276,1.272,1.272,0,0,1,.159-.495.233.233,0,0,1,.081-.088h0s0,0,0,0a.045.045,0,0,0,0-.014l-.08-.047-1.571-.007a.168.168,0,0,1-.043-.022l0,0h0v0h0v0a.118.118,0,0,1,.049-.029c.375-.051,1.042-.16,1.086-.8a.526.526,0,1,0-1.034.022c-.014.086.029.256-.059.275-.578.053-1.208.415-1.229.674h-.026a.151.151,0,0,1-.078-.159,3.1,3.1,0,0,0-.4-1.345c-.081-.081-.117-.114-.14-.118h-.011Zm1.5.236a.1.1,0,0,0-.076.077c-.007.029.014.077-.012.092s-.074.006-.072-.074a.14.14,0,0,0-.03-.07.056.056,0,0,0-.039-.01c-.025,0-.026.008-.04.029a.25.25,0,0,0-.014.067c0,.029-.013.038-.034.043s-.018,0-.037-.01-.026-.017-.026-.038a.228.228,0,0,0-.011-.071.079.079,0,0,0-.045-.023c-.1,0-.1.113-.1.155-.007.008-.012.211.122.267.181.086.612.035.507-.243,0-.026-.007-.112-.01-.136A.078.078,0,0,0,194.112,120.528Zm6.07.249a.03.03,0,0,0-.015,0s-.839.6-.859.617c-.083.074-.042.334,0,.3a3.338,3.338,0,0,0,.888-.616c.037,0,.054-.294-.014-.307Zm-5.278.088a.215.215,0,0,1,.122.033c.063.036.1.091.1.131,0,0,0,0,0,0l0,0v.01l-.008.01a.153.153,0,0,1-.165-.014.165.165,0,0,1-.1-.131v0a.047.047,0,0,1,.005-.014l0-.005h0l.007-.007A.078.078,0,0,1,194.9,120.865Zm-7.343.151a1.4,1.4,0,0,0-1.088.881c.458-.22.909-.432,1.375-.66C187.773,121.125,187.843,121.024,187.561,121.016Zm1.408.2a.118.118,0,0,1,.111.081.141.141,0,0,1-.025.14s0,0,0,0v0c-.018.023-.082.014-.128.014a.124.124,0,0,1-.115-.056c-.016-.05.032-.1.054-.136h0l.01-.011a.144.144,0,0,1,.076-.033Zm11.05.173a.146.146,0,0,0-.117.2c-.021.069.1.308.137.436.029.091-.038.347.023.374s.2-.152.2-.381c.016-.118-.042-.551-.19-.624a.139.139,0,0,0-.054,0Zm-9.385.423c-.068,0-.129.041-.1.137,0,.07.193.155.2.316.028.067-.042.28.016.3s.129-.147.157-.305c.016-.086-.068-.389-.209-.443a.242.242,0,0,0-.067-.006Zm2.809.384h.018a4.87,4.87,0,0,0,.657.076c.182.012.273.154.1.214s-.331.1-.331.346a.336.336,0,0,1,0,.213l-.005.007h-.008l-.008,0h-.008c-.04.006-.1-.032-.142-.055a.891.891,0,0,1-.437-.643.163.163,0,0,1,.165-.17Zm-6.861.3c-.011,0-.033.033-.062.07a1.364,1.364,0,0,0-.139,1.21.3.3,0,0,0,.293.1.538.538,0,0,0,.2-.52c-.054-.085-.1-.1-.151-.026-.114.232-.162.073-.172-.056a2.981,2.981,0,0,1,.033-.652c.014-.092.014-.124,0-.124Zm8.806.541a.118.118,0,0,0-.06.012,1.1,1.1,0,0,0-.243.208c-.036.027-.032.051-.021.1.028.064.077.044.132.014.074-.01.109.038.1.126a.163.163,0,0,0,.015.158.122.122,0,0,0,.154.019,2.914,2.914,0,0,1,.531-.186c.065,0,.061-.174-.041-.18a.6.6,0,0,0-.389.118c-.082.019-.1-.031-.114-.076-.021-.111.047-.189.033-.272a.192.192,0,0,0-.1-.04Zm5.638.21c-.033,0-.067.006-.117.01s-.073.035-.082.1c0,.1.064.094.126.133a.107.107,0,0,1,0,.162c-.059.054-.1.084-.16.137-.028.047-.045.12.04.143.157.044.52-.192.52-.2a.115.115,0,0,0,.034-.128c-.034-.039-.112-.016-.164-.022-.025,0-.106-.012-.067-.084a.487.487,0,0,0,.066-.126c.024-.054,0-.09-.085-.12A.489.489,0,0,0,201.026,123.241Zm-2.355,4.769h0a.248.248,0,0,0-.085.456c-2.754,0-6.98-.047-7.886-.047-.507,0-2.111-.061-2.142-.061a1.624,1.624,0,0,0,1.494.616c1.223,0,6.891-.015,8.5-.015a.565.565,0,0,0,.1.591l.007,0,.011,0h0c.107.025.154-.052.19-.109a11.04,11.04,0,0,0,1.237,0h0c.06.089.12.173.235.158.2-.043.359-.065.364-.473,0,0-.021-.7-.477-.652-.108.016-.411.047-.411.047-.351-.042-.608-.046-1-.06.036-.046.1-.233.022-.3a.127.127,0,0,0-.094-.023h-.01l-.007-.007,0,0c-.02-.029-.031-.1-.044-.118h-.008Zm.187.994h0c.4.02.779,0,1.181.023a.145.145,0,0,1-.01.2l-.007,0h-.011l-.337-.01a.075.075,0,0,0,0-.019c-.031-.092-.255-.086-.308-.014l0,0,0,.006,0,.007a.067.067,0,0,0,0,.01.066.066,0,0,0,0,.011,3.155,3.155,0,0,1-.511-.012c-.052-.064-.046-.181.015-.209Z" transform="translate(-178.014 -112.868)"/></g></svg>