<svg xmlns="http://www.w3.org/2000/svg" width="33.484" height="21.938" viewBox="0 0 33.484 21.938"><defs><style>.a{fill:#f5f5f5;}.b{fill:#ff4b55;}.c{fill:#41479b;}</style></defs><g transform="translate(0 -88.276)"><path class="a" d="M32.907,110.214H.577A.577.577,0,0,1,0,109.637V88.853a.577.577,0,0,1,.577-.577H32.907a.577.577,0,0,1,.577.577v20.783A.577.577,0,0,1,32.907,110.214Z" transform="translate(0 0)"/><g transform="translate(0 88.276)"><path class="b" d="M33.484,89.964H0v-1.11a.577.577,0,0,1,.577-.577H32.907a.577.577,0,0,1,.577.577v1.11Z" transform="translate(0 -88.276)"/><rect class="b" width="33.484" height="1.688" transform="translate(0 6.75)"/><rect class="b" width="33.484" height="1.688" transform="translate(0 3.375)"/><path class="b" d="M33.484,244.786H.577A.577.577,0,0,1,0,244.208V243.1H33.484Z" transform="translate(0 -232.973)"/><rect class="b" width="33.484" height="1.688" transform="translate(0 16.876)"/><path class="b" d="M32.907,399.609H.577A.577.577,0,0,1,0,399.031v-1.11H33.484v1.11A.577.577,0,0,1,32.907,399.609Z" transform="translate(0 -377.671)"/><rect class="b" width="33.484" height="1.688" transform="translate(0 13.501)"/></g><path class="c" d="M15.01,88.277H.577A.577.577,0,0,0,0,88.854V99.512a.577.577,0,0,0,.577.577H15.01a.577.577,0,0,0,.577-.577V88.854A.577.577,0,0,0,15.01,88.277Z" transform="translate(0 -0.001)"/><g transform="translate(0.932 89.564)"><path class="a" d="M14.942,108.006l.128.383.4,0a.054.054,0,0,1,.032.1l-.325.24.122.385a.054.054,0,0,1-.084.061l-.329-.235-.329.235a.054.054,0,0,1-.084-.061l.122-.385-.325-.24a.054.054,0,0,1,.032-.1l.4,0,.128-.383A.054.054,0,0,1,14.942,108.006Z" transform="translate(-14.253 -107.969)"/><path class="a" d="M14.942,138.661l.128.383.4,0a.054.054,0,0,1,.032.1l-.325.24.122.385a.054.054,0,0,1-.084.061l-.329-.235-.329.235a.054.054,0,0,1-.084-.061l.122-.385-.325-.24a.054.054,0,0,1,.032-.1l.4,0,.128-.383A.054.054,0,0,1,14.942,138.661Z" transform="translate(-14.253 -136.619)"/><path class="a" d="M14.942,169.315l.128.383.4,0a.054.054,0,0,1,.032.1l-.325.24.122.385a.054.054,0,0,1-.084.061l-.329-.235-.329.235a.054.054,0,0,1-.084-.061l.122-.385-.325-.24a.054.054,0,0,1,.032-.1l.4,0,.128-.383A.054.054,0,0,1,14.942,169.315Z" transform="translate(-14.253 -165.268)"/><path class="a" d="M14.942,199.969l.128.383.4,0a.054.054,0,0,1,.032.1l-.325.24.122.385a.054.054,0,0,1-.084.061l-.329-.235-.329.235a.054.054,0,0,1-.084-.061l.122-.385-.325-.24a.054.054,0,0,1,.032-.1l.4,0,.128-.383A.054.054,0,0,1,14.942,199.969Z" transform="translate(-14.253 -193.918)"/><path class="a" d="M14.942,230.622l.128.383.4,0a.054.054,0,0,1,.032.1l-.325.24.122.385a.054.054,0,0,1-.084.061l-.329-.235-.329.235a.054.054,0,0,1-.084-.061l.122-.385-.325-.24a.054.054,0,0,1,.032-.1l.4,0,.128-.383A.054.054,0,0,1,14.942,230.622Z" transform="translate(-14.253 -222.566)"/><path class="a" d="M38.735,123.036l.128.383.4,0a.054.054,0,0,1,.032.1l-.325.24.122.385a.054.054,0,0,1-.084.061l-.329-.235-.329.235a.054.054,0,0,1-.084-.061l.122-.385-.325-.24a.054.054,0,0,1,.032-.1l.4,0,.128-.383A.054.054,0,0,1,38.735,123.036Z" transform="translate(-36.49 -122.016)"/><path class="a" d="M38.735,153.69l.128.383.4,0a.054.054,0,0,1,.032.1l-.325.24.122.385a.054.054,0,0,1-.084.061l-.329-.235-.329.235a.054.054,0,0,1-.084-.061l.122-.385-.325-.24a.054.054,0,0,1,.032-.1l.4,0,.128-.383A.054.054,0,0,1,38.735,153.69Z" transform="translate(-36.49 -150.665)"/><path class="a" d="M38.735,184.344l.128.383.4,0a.054.054,0,0,1,.032.1l-.325.24.122.385a.054.054,0,0,1-.084.061l-.329-.235-.329.235a.054.054,0,0,1-.084-.061l.122-.385-.325-.24a.054.054,0,0,1,.032-.1l.4,0,.128-.383A.054.054,0,0,1,38.735,184.344Z" transform="translate(-36.49 -179.314)"/><path class="a" d="M38.735,215l.128.383.4,0a.054.054,0,0,1,.032.1l-.325.24.122.385a.054.054,0,0,1-.084.061l-.329-.235-.329.235a.054.054,0,0,1-.084-.061l.122-.385-.325-.24a.054.054,0,0,1,.032-.1l.4,0,.128-.383A.054.054,0,0,1,38.735,215Z" transform="translate(-36.49 -207.964)"/><path class="a" d="M62.528,108.006l.128.383.4,0a.054.054,0,0,1,.032.1l-.325.24.122.385a.054.054,0,0,1-.084.061l-.329-.235-.329.235a.054.054,0,0,1-.084-.061l.122-.385-.325-.24a.054.054,0,0,1,.032-.1l.4,0,.128-.383A.054.054,0,0,1,62.528,108.006Z" transform="translate(-58.727 -107.969)"/><path class="a" d="M62.528,138.661l.128.383.4,0a.054.054,0,0,1,.032.1l-.325.24.122.385a.054.054,0,0,1-.084.061l-.329-.235-.329.235a.054.054,0,0,1-.084-.061l.122-.385-.325-.24a.054.054,0,0,1,.032-.1l.4,0,.128-.383A.054.054,0,0,1,62.528,138.661Z" transform="translate(-58.727 -136.619)"/><path class="a" d="M62.528,169.315l.128.383.4,0a.054.054,0,0,1,.032.1l-.325.24.122.385a.054.054,0,0,1-.084.061l-.329-.235-.329.235a.054.054,0,0,1-.084-.061l.122-.385-.325-.24a.054.054,0,0,1,.032-.1l.4,0,.128-.383A.054.054,0,0,1,62.528,169.315Z" transform="translate(-58.727 -165.268)"/><path class="a" d="M62.528,199.969l.128.383.4,0a.054.054,0,0,1,.032.1l-.325.24.122.385a.054.054,0,0,1-.084.061l-.329-.235-.329.235a.054.054,0,0,1-.084-.061l.122-.385-.325-.24a.054.054,0,0,1,.032-.1l.4,0,.128-.383A.054.054,0,0,1,62.528,199.969Z" transform="translate(-58.727 -193.917)"/><path class="a" d="M62.528,230.622l.128.383.4,0a.054.054,0,0,1,.032.1l-.325.24.122.385a.054.054,0,0,1-.084.061l-.329-.235-.329.235a.054.054,0,0,1-.084-.061l.122-.385-.325-.24a.054.054,0,0,1,.032-.1l.4,0,.128-.383A.054.054,0,0,1,62.528,230.622Z" transform="translate(-58.727 -222.566)"/><path class="a" d="M86.322,123.036l.128.383.4,0a.054.054,0,0,1,.032.1l-.325.24.122.385a.054.054,0,0,1-.084.061l-.329-.235-.329.235a.054.054,0,0,1-.084-.061l.122-.385-.325-.24a.054.054,0,0,1,.032-.1l.4,0,.128-.383A.054.054,0,0,1,86.322,123.036Z" transform="translate(-80.965 -122.016)"/><path class="a" d="M86.322,153.69l.128.383.4,0a.054.054,0,0,1,.032.1l-.325.24.122.385a.054.054,0,0,1-.084.061l-.329-.235-.329.235a.054.054,0,0,1-.084-.061l.122-.385-.325-.24a.054.054,0,0,1,.032-.1l.4,0,.128-.383A.054.054,0,0,1,86.322,153.69Z" transform="translate(-80.965 -150.665)"/><path class="a" d="M86.322,184.344l.128.383.4,0a.054.054,0,0,1,.032.1l-.325.24.122.385a.054.054,0,0,1-.084.061l-.329-.235-.329.235a.054.054,0,0,1-.084-.061l.122-.385-.325-.24a.054.054,0,0,1,.032-.1l.4,0,.128-.383A.054.054,0,0,1,86.322,184.344Z" transform="translate(-80.965 -179.314)"/><path class="a" d="M86.322,215l.128.383.4,0a.054.054,0,0,1,.032.1l-.325.24.122.385a.054.054,0,0,1-.084.061l-.329-.235-.329.235a.054.054,0,0,1-.084-.061l.122-.385-.325-.24a.054.054,0,0,1,.032-.1l.4,0,.128-.383A.054.054,0,0,1,86.322,215Z" transform="translate(-80.965 -207.964)"/><path class="a" d="M110.114,108.006l.128.383.4,0a.054.054,0,0,1,.032.1l-.325.24.122.385a.054.054,0,0,1-.084.061l-.329-.235-.329.235a.054.054,0,0,1-.084-.061l.122-.385-.325-.24a.054.054,0,0,1,.032-.1l.4,0,.128-.383A.054.054,0,0,1,110.114,108.006Z" transform="translate(-103.201 -107.969)"/><path class="a" d="M110.114,138.661l.128.383.4,0a.054.054,0,0,1,.032.1l-.325.24.122.385a.054.054,0,0,1-.084.061l-.329-.235-.329.235a.054.054,0,0,1-.084-.061l.122-.385-.325-.24a.054.054,0,0,1,.032-.1l.4,0,.128-.383A.054.054,0,0,1,110.114,138.661Z" transform="translate(-103.201 -136.619)"/><path class="a" d="M110.114,169.315l.128.383.4,0a.054.054,0,0,1,.032.1l-.325.24.122.385a.054.054,0,0,1-.084.061l-.329-.235-.329.235a.054.054,0,0,1-.084-.061l.122-.385-.325-.24a.054.054,0,0,1,.032-.1l.4,0,.128-.383A.054.054,0,0,1,110.114,169.315Z" transform="translate(-103.201 -165.268)"/><path class="a" d="M110.114,199.969l.128.383.4,0a.054.054,0,0,1,.032.1l-.325.24.122.385a.054.054,0,0,1-.084.061l-.329-.235-.329.235a.054.054,0,0,1-.084-.061l.122-.385-.325-.24a.054.054,0,0,1,.032-.1l.4,0,.128-.383A.054.054,0,0,1,110.114,199.969Z" transform="translate(-103.201 -193.917)"/><path class="a" d="M110.114,230.622l.128.383.4,0a.054.054,0,0,1,.032.1l-.325.24.122.385a.054.054,0,0,1-.084.061l-.329-.235-.329.235a.054.054,0,0,1-.084-.061l.122-.385-.325-.24a.054.054,0,0,1,.032-.1l.4,0,.128-.383A.054.054,0,0,1,110.114,230.622Z" transform="translate(-103.201 -222.566)"/><path class="a" d="M133.908,123.036l.128.383.4,0a.054.054,0,0,1,.032.1l-.325.24.122.385a.054.054,0,0,1-.084.061l-.329-.235-.329.235a.054.054,0,0,1-.084-.061l.122-.385-.325-.24a.054.054,0,0,1,.032-.1l.4,0,.128-.383A.054.054,0,0,1,133.908,123.036Z" transform="translate(-125.438 -122.016)"/><path class="a" d="M133.908,153.69l.128.383.4,0a.054.054,0,0,1,.032.1l-.325.24.122.385a.054.054,0,0,1-.084.061l-.329-.235-.329.235a.054.054,0,0,1-.084-.061l.122-.385-.325-.24a.054.054,0,0,1,.032-.1l.4,0,.128-.383A.054.054,0,0,1,133.908,153.69Z" transform="translate(-125.438 -150.665)"/><path class="a" d="M133.908,184.344l.128.383.4,0a.054.054,0,0,1,.032.1l-.325.24.122.385a.054.054,0,0,1-.084.061l-.329-.235-.329.235a.054.054,0,0,1-.084-.061l.122-.385-.325-.24a.054.054,0,0,1,.032-.1l.4,0,.128-.383A.054.054,0,0,1,133.908,184.344Z" transform="translate(-125.438 -179.314)"/><path class="a" d="M133.908,215l.128.383.4,0a.054.054,0,0,1,.032.1l-.325.24.122.385a.054.054,0,0,1-.084.061l-.329-.235-.329.235a.054.054,0,0,1-.084-.061l.122-.385-.325-.24a.054.054,0,0,1,.032-.1l.4,0L133.8,215A.054.054,0,0,1,133.908,215Z" transform="translate(-125.438 -207.964)"/><path class="a" d="M157.7,108.006l.128.383.4,0a.054.054,0,0,1,.032.1l-.325.24.122.385a.054.054,0,0,1-.084.061l-.329-.235-.329.235a.054.054,0,0,1-.084-.061l.122-.385-.325-.24a.054.054,0,0,1,.032-.1l.4,0,.128-.383A.054.054,0,0,1,157.7,108.006Z" transform="translate(-147.676 -107.969)"/><path class="a" d="M157.7,138.661l.128.383.4,0a.054.054,0,0,1,.032.1l-.325.24.122.385a.054.054,0,0,1-.084.061l-.329-.235-.329.235a.054.054,0,0,1-.084-.061l.122-.385-.325-.24a.054.054,0,0,1,.032-.1l.4,0,.128-.383A.054.054,0,0,1,157.7,138.661Z" transform="translate(-147.676 -136.619)"/><path class="a" d="M157.7,169.315l.128.383.4,0a.054.054,0,0,1,.032.1l-.325.24.122.385a.054.054,0,0,1-.084.061l-.329-.235-.329.235a.054.054,0,0,1-.084-.061l.122-.385-.325-.24a.054.054,0,0,1,.032-.1l.4,0,.128-.383A.054.054,0,0,1,157.7,169.315Z" transform="translate(-147.676 -165.268)"/><path class="a" d="M157.7,199.969l.128.383.4,0a.054.054,0,0,1,.032.1l-.325.24.122.385a.054.054,0,0,1-.084.061l-.329-.235-.329.235a.054.054,0,0,1-.084-.061l.122-.385-.325-.24a.054.054,0,0,1,.032-.1l.4,0,.128-.383A.054.054,0,0,1,157.7,199.969Z" transform="translate(-147.676 -193.917)"/><path class="a" d="M157.7,230.622l.128.383.4,0a.054.054,0,0,1,.032.1l-.325.24.122.385a.054.054,0,0,1-.084.061l-.329-.235-.329.235a.054.054,0,0,1-.084-.061l.122-.385-.325-.24a.054.054,0,0,1,.032-.1l.4,0,.128-.383A.054.054,0,0,1,157.7,230.622Z" transform="translate(-147.676 -222.566)"/><path class="a" d="M181.495,123.036l.128.383.4,0a.054.054,0,0,1,.032.1l-.325.24.122.385a.054.054,0,0,1-.084.061l-.329-.235-.329.235a.054.054,0,0,1-.084-.061l.122-.385-.325-.24a.054.054,0,0,1,.032-.1l.4,0,.128-.383A.054.054,0,0,1,181.495,123.036Z" transform="translate(-169.913 -122.016)"/><path class="a" d="M181.495,153.69l.128.383.4,0a.054.054,0,0,1,.032.1l-.325.24.122.385a.054.054,0,0,1-.084.061l-.329-.235-.329.235a.054.054,0,0,1-.084-.061l.122-.385-.325-.24a.054.054,0,0,1,.032-.1l.4,0,.128-.383A.054.054,0,0,1,181.495,153.69Z" transform="translate(-169.913 -150.665)"/><path class="a" d="M181.495,184.344l.128.383.4,0a.054.054,0,0,1,.032.1l-.325.24.122.385a.054.054,0,0,1-.084.061l-.329-.235-.329.235a.054.054,0,0,1-.084-.061l.122-.385-.325-.24a.054.054,0,0,1,.032-.1l.4,0,.128-.383A.054.054,0,0,1,181.495,184.344Z" transform="translate(-169.913 -179.314)"/><path class="a" d="M181.495,215l.128.383.4,0a.054.054,0,0,1,.032.1l-.325.24.122.385a.054.054,0,0,1-.084.061l-.329-.235-.329.235a.054.054,0,0,1-.084-.061l.122-.385-.325-.24a.054.054,0,0,1,.032-.1l.4,0,.128-.383A.054.054,0,0,1,181.495,215Z" transform="translate(-169.913 -207.964)"/><path class="a" d="M205.289,108.006l.128.383.4,0a.054.054,0,0,1,.032.1l-.325.24.122.385a.054.054,0,0,1-.084.061l-.329-.235-.329.235a.054.054,0,0,1-.084-.061l.122-.385-.325-.24a.054.054,0,0,1,.032-.1l.4,0,.128-.383A.054.054,0,0,1,205.289,108.006Z" transform="translate(-192.151 -107.969)"/><path class="a" d="M205.289,138.661l.128.383.4,0a.054.054,0,0,1,.032.1l-.325.24.122.385a.054.054,0,0,1-.084.061l-.329-.235-.329.235a.054.054,0,0,1-.084-.061l.122-.385-.325-.24a.054.054,0,0,1,.032-.1l.4,0,.128-.383A.054.054,0,0,1,205.289,138.661Z" transform="translate(-192.151 -136.619)"/><path class="a" d="M205.289,169.315l.128.383.4,0a.054.054,0,0,1,.032.1l-.325.24.122.385a.054.054,0,0,1-.084.061l-.329-.235-.329.235a.054.054,0,0,1-.084-.061l.122-.385-.325-.24a.054.054,0,0,1,.032-.1l.4,0,.128-.383A.054.054,0,0,1,205.289,169.315Z" transform="translate(-192.151 -165.268)"/><path class="a" d="M205.289,199.969l.128.383.4,0a.054.054,0,0,1,.032.1l-.325.24.122.385a.054.054,0,0,1-.084.061l-.329-.235-.329.235a.054.054,0,0,1-.084-.061l.122-.385-.325-.24a.054.054,0,0,1,.032-.1l.4,0,.128-.383A.054.054,0,0,1,205.289,199.969Z" transform="translate(-192.151 -193.917)"/><path class="a" d="M205.289,230.622l.128.383.4,0a.054.054,0,0,1,.032.1l-.325.24.122.385a.054.054,0,0,1-.084.061l-.329-.235-.329.235a.054.054,0,0,1-.084-.061l.122-.385-.325-.24a.054.054,0,0,1,.032-.1l.4,0,.128-.383A.054.054,0,0,1,205.289,230.622Z" transform="translate(-192.151 -222.566)"/></g></g></svg>